<svg width="346" height="349" viewBox="0 0 346 349" fill="none" xmlns="http://www.w3.org/2000/svg">
	<path fill-rule="evenodd" clip-rule="evenodd"
		d="M97.7278 52.4253C95.775 52.4253 94.1289 53.8819 93.8911 55.8202L81.7056 155.166C81.423 157.47 83.2209 159.502 85.5423 159.502H239.623C241.758 159.502 243.488 161.233 243.488 163.367V209.753C243.488 211.887 241.758 213.618 239.623 213.618H77.9563C76.0035 213.618 74.3574 215.075 74.1197 217.013L58.4047 345.134C58.1671 347.071 56.5229 348.527 54.5713 348.529L3.86936 348.572C1.53567 348.574 -0.267609 346.524 0.0327649 344.209L44.4118 2.28371C44.5962 0.862468 45.8882 -0.146993 47.3119 0.0177243L50.2264 0.354929C50.2303 0.355383 50.2337 0.352315 50.2337 0.348365C50.2337 0.344716 50.2367 0.341757 50.2403 0.341757H342.134C344.465 0.341757 346.266 2.38903 345.968 4.70069L340.259 49.0534C340.011 50.9815 338.369 52.4253 336.425 52.4253L97.7278 52.4253ZM327.618 105.993C327.618 92.7892 317.023 82.0279 303.821 81.8216L273.516 81.3481C273.508 81.348 273.502 81.3543 273.502 81.3621C273.502 81.3699 273.495 81.3761 273.488 81.3761H127.059C125.13 81.3761 123.496 82.7978 123.23 84.708L116.984 129.526C116.66 131.85 118.466 133.925 120.813 133.925H269.636C271.771 133.925 273.502 135.655 273.502 137.79L273.502 236.61C273.502 238.745 271.771 240.475 269.636 240.475H106.315C106.148 240.475 105.982 240.462 105.817 240.434C104.118 240.152 102.523 241.337 102.303 243.045L89.4222 342.779C89.1279 345.058 90.8747 347.089 93.1719 347.139L143.055 348.221C145.071 348.265 146.781 346.753 146.985 344.747L151.882 296.499C152.083 294.525 153.744 293.024 155.728 293.024H274.492C274.526 293.024 274.554 292.996 274.554 292.962C274.554 292.926 274.583 292.898 274.618 292.899L302.58 293.898C316.261 294.387 327.618 283.429 327.618 269.739L327.618 105.993Z"
		fill="#FF8C00" />
</svg>



